<svg width="75" height="75" fill="none" xmlns="http://www.w3.org/2000/svg"><rect width="75" height="75" rx="5" fill="#151DE0" fill-opacity=".11"/><path d="M38.006 20c-7.191 0-13.046 5.164-13.046 11.507 0 2.937 1.291 5.594 3.352 7.632L20 50.686h8.221L31.981 56l6.025-9.37L44.03 56l3.76-5.314H56l-8.3-11.547c2.06-2.038 3.351-4.695 3.351-7.632C51.051 25.164 45.197 20 38.006 20zm0 2.557c5.617 0 10.146 3.996 10.146 8.95 0 2.058-.815 3.926-2.129 5.434L44.8 38.02c-1.302 1.149-3.057 1.948-4.914 2.277-.612.1-1.235.16-1.88.16-.646 0-1.269-.06-1.88-.16-1.857-.33-3.613-1.128-4.915-2.277l-1.223-1.079c-1.314-1.508-2.129-3.376-2.129-5.434 0-4.954 4.53-8.95 10.147-8.95zm-1.45 2.557c0 1.409-1.042 2.558-2.899 2.558v2.557a6.31 6.31 0 002.9-.7V37.9h2.898V25.114h-2.899zm-6.07 15.763c1.891 1.178 4.134 1.898 6.568 2.057l-5.197 8.072-2.027-2.877h-4.553l5.21-7.252zm15.039 0l5.21 7.252h-4.542l-2.038 2.877-5.198-8.072c2.435-.16 4.677-.878 6.568-2.057z" fill="#151DE0"/></svg>